<svg xmlns="http://www.w3.org/2000/svg" xmlns:xlink="http://www.w3.org/1999/xlink" viewBox="0 0 144 36"><a xlink:href="http://www.craigwebbart.com" target="_"><path fill="#FCC" d="M0 0h144v8H0z"/><path fill="#FDFDFD" d="M0 8h144v20H0z"/><path fill="#FCC" d="M0 28h144v8H0z"/><path d="M7.054 22.214c-.605.162-1.109.234-1.996.234-3.064 0-4.938-1.584-4.938-4.682 0-2.575 1.149-4.285 3.91-4.285 2.56 0 3.286 1.44 3.286 2.809H5.684c0-.918-.423-1.782-1.713-1.782-1.734 0-2.278 1.692-2.278 2.989 0 1.639.625 3.925 3.81 3.925.343 0 1.028-.019 1.552-.181v.973zm5.766-8.534h1.371v1.656h.04c.282-.576 1.008-1.854 3.205-1.854v1.314c-2.177 0-3.245 1.603-3.245 3.907v3.547H12.82v-8.57zm14.575 7.436h-.04c-.242.414-1.189 1.332-2.943 1.332-1.572 0-2.58-.864-2.58-2.395 0-1.999 2.902-2.665 4.576-2.665.342 0 .625 0 .947-.054 0-.414 0-1.35-.061-1.638-.222-.955-1.028-1.188-1.753-1.188-1.552 0-1.854.702-1.956 1.368h-1.532c.02-1.08.826-2.395 3.447-2.395 2.983 0 3.225 1.674 3.225 2.755v6.014h-1.331v-1.134zm-.846-2.755c-1.008 0-3.145.36-3.145 1.819 0 .811.645 1.242 1.351 1.242.867 0 1.834-.504 2.237-1.332.242-.505.363-.702.363-1.729h-.806zm8.709-8.535h1.814v1.621h-1.814V9.826zm.222 3.854h1.371v8.57H35.48v-8.57zm14.655 8.588c0 2.431-1.31 3.728-4.072 3.728-1.492 0-2.278-.234-2.6-.288v-1.242c.141.054 1.088.504 2.398.504 2.479 0 2.903-1.314 2.903-2.845v-1.513h-.041c-.201.576-.887 1.639-2.54 1.639-2.52 0-3.245-2.106-3.245-4.231 0-2.287.907-4.537 3.285-4.537 1.633 0 2.338 1.062 2.5 1.603h.041V13.68h1.371v8.588zm-3.668-1.044c1.653 0 2.298-1.98 2.298-3.421 0-1.333-.625-3.295-2.258-3.295-1.451 0-1.995 1.692-1.995 3.529 0 1.315.322 3.187 1.955 3.187zm10.544-7.544h1.371l1.753 6.662h.041l2.298-6.662h1.189l2.318 6.662h.041l1.733-6.662h1.371l-2.237 8.57h-1.532L63.1 15.678h-.041L60.82 22.25h-1.492l-2.317-8.57zm23.828 8.516c-.585.162-1.311.252-2.197.252-2.963 0-4.676-1.603-4.676-4.771 0-2.557 1.188-4.195 3.749-4.195 2.257 0 3.346 1.386 3.346 3.259v.414h-5.523v.504c0 1.296.646 3.763 3.407 3.763 1.068 0 1.451-.145 1.895-.234v1.008zm-1.351-6.068c0-.576-.443-1.62-1.834-1.62-1.432 0-1.895 1.044-2.016 1.62h3.85zm8.205-1.026h.041c.222-.612.967-1.621 2.6-1.621 2.641 0 3.427 2.358 3.427 4.573 0 2.467-1.108 4.394-3.85 4.394-3.427 0-3.588-2.61-3.588-3.728V9.826h1.37v5.276zm2.177 6.32c1.714 0 2.318-1.692 2.318-3.403 0-1.638-.524-3.511-2.116-3.511-1.714 0-2.379 2.106-2.379 3.799 0 .99.161 3.115 2.177 3.115zm10.544-6.32h.041c.222-.612.967-1.621 2.6-1.621 2.641 0 3.427 2.358 3.427 4.573 0 2.467-1.108 4.394-3.85 4.394-3.427 0-3.588-2.61-3.588-3.728V9.826h1.37v5.276zm2.177 6.32c1.714 0 2.318-1.692 2.318-3.403 0-1.638-.524-3.511-2.116-3.511-1.714 0-2.379 2.106-2.379 3.799 0 .99.161 3.115 2.177 3.115zm15.099-.162h-.04c-.303.558-.968 1.188-2.5 1.188-1.612 0-2.821-.864-2.821-2.251 0-2.845 4.031-2.863 5.361-2.899v-.846c0-.846-.242-1.566-1.351-1.566-1.229 0-1.472.738-1.472 1.314h-2.177c0-1.639 1.21-2.719 3.648-2.719 2.379 0 3.487.918 3.487 2.665v6.104h-2.137v-.99zm-1.995-.216c1.451 0 1.995-1.404 1.995-2.575-1.451 0-3.185.396-3.185 1.549.001.666.424 1.026 1.19 1.026zm11.007-7.364h2.237v1.584h.041c.523-.828 1.169-1.782 3.104-1.782v2.088c-2.258 0-3.145.846-3.145 2.917v3.763h-2.237v-8.57zm17.035 8.624c-.605.09-1.229.145-1.835.145-2.54 0-2.942-1.08-2.942-2.358v-5.024h-1.875V13.68h1.875v-2.035l2.237-1.207v3.241h2.842v1.386h-2.842v4.051c0 1.026.141 1.927 1.512 1.927.363 0 .705-.072 1.028-.145v1.406z" fill="#08C"/></a></svg>